<svg xmlns="http://www.w3.org/2000/svg" viewBox="0 0 64 64">
  <rect width="64" height="64" rx="12" fill="#1f4e79"></rect>

  <rect x="10" y="6" width="44" height="56" rx="7" fill="#163a5a"></rect>

  <rect x="15" y="12" width="34" height="14" rx="3" fill="#e8f4ea"></rect>

  <text x="32" y="22" font-size="10" font-weight="900" text-anchor="middle" fill="#0b3d2e" font-family="Arial, Helvetica, sans-serif">£45k</text>

  <g fill="#ffffff" opacity="0.85">
    <rect x="16" y="31" width="7" height="6" rx="1.5"></rect>
    <rect x="27" y="31" width="7" height="6" rx="1.5"></rect>
    <rect x="38" y="31" width="7" height="6" rx="1.5"></rect>

    <rect x="16" y="40" width="7" height="6" rx="1.5"></rect>
    <rect x="27" y="40" width="7" height="6" rx="1.5"></rect>
    <rect x="38" y="40" width="7" height="6" rx="1.5"></rect>

    <rect x="16" y="49" width="7" height="6" rx="1.5"></rect>
    <rect x="27" y="49" width="7" height="6" rx="1.5"></rect>
    <rect x="38" y="49" width="7" height="6" rx="1.5"></rect>
  </g>

  <rect x="16" y="56" width="29" height="4" rx="1.5" fill="#d4af37"></rect>
</svg>
